<svg width="26" height="17" viewBox="0 0 26 17" fill="none" xmlns="http://www.w3.org/2000/svg">
<path opacity="0.7" d="M24.0768 10.0313L22.5995 10.5289L21.3166 3.48477L24.6132 2.16302C24.7082 2.12524 24.7948 2.06913 24.868 1.99789C24.9413 1.92665 24.9998 1.84167 25.0403 1.74782C25.0807 1.65396 25.1022 1.55306 25.1037 1.45087C25.1051 1.34869 25.0864 1.24722 25.0486 1.15227C25.0108 1.05731 24.9547 0.970727 24.8835 0.897457C24.8123 0.824186 24.7273 0.765665 24.6334 0.725234C24.5396 0.684803 24.4387 0.663256 24.3365 0.66182C24.2343 0.660384 24.1328 0.67909 24.0379 0.716868L20.1504 2.27187C19.981 2.33611 19.8393 2.4575 19.7499 2.61507C19.6604 2.77265 19.6288 2.9565 19.6606 3.13489V3.27484L17.8023 4.20007C17.6732 4.26556 17.5284 4.29371 17.3842 4.28135C17.2399 4.26898 17.102 4.2166 16.986 4.13009L15.0966 2.68394C14.6929 2.38113 14.2018 2.21744 13.6971 2.21744H11.5901C11.3038 2.21758 11.023 2.29679 10.7788 2.44633C10.5346 2.59586 10.3364 2.80993 10.2062 3.06492L8.81443 2.99494C8.67962 2.98924 8.54564 3.01871 8.42568 3.08047L7.12725 3.72579L4.88805 3.16599V3.06492C4.90458 2.90717 4.87248 2.74815 4.79604 2.60917C4.71961 2.4702 4.6025 2.35793 4.46043 2.28742L1.35043 0.732418C1.1692 0.65695 0.966125 0.652833 0.781985 0.720894C0.597845 0.788955 0.446269 0.924155 0.357687 1.09935C0.269106 1.27454 0.250078 1.47676 0.304423 1.66541C0.358769 1.85405 0.482464 2.01515 0.650676 2.11637L3.2864 3.43812L2.64885 10.4823L1.24935 10.0158C1.14878 9.9831 1.04276 9.97055 0.937339 9.97885C0.83192 9.98715 0.729168 10.0161 0.63495 10.0641C0.540732 10.1122 0.456894 10.1783 0.388221 10.2587C0.319548 10.3391 0.267386 10.4322 0.234713 10.5328C0.20204 10.6334 0.189496 10.7394 0.197797 10.8448C0.206099 10.9502 0.235082 11.053 0.283094 11.1472C0.331105 11.2414 0.397204 11.3253 0.477616 11.3939C0.558028 11.4626 0.65118 11.5148 0.751751 11.5474L3.08425 12.3249C3.16681 12.3361 3.2505 12.3361 3.33305 12.3249C3.48408 12.322 3.63162 12.279 3.76068 12.2005C3.85936 12.1362 3.94214 12.0503 4.00275 11.9493C4.06336 11.8482 4.10022 11.7348 4.11055 11.6174L4.17275 10.8943L5.17573 11.3919C5.26876 11.969 5.57031 12.4919 6.0232 12.8614L10.5094 16.0803C10.6688 16.2119 10.853 16.3103 11.0509 16.3699C11.2489 16.4295 11.4568 16.449 11.6624 16.4273C11.868 16.4055 12.0672 16.343 12.2484 16.2434C12.4295 16.1438 12.589 16.009 12.7175 15.847C13.0134 15.9595 13.3296 16.0086 13.6457 15.9912C13.9617 15.9738 14.2706 15.8902 14.5524 15.7459L18.7587 13.6467C19.0125 13.5185 19.2323 13.3318 19.3999 13.102C19.5675 12.8722 19.6782 12.6059 19.7227 12.3249C19.7305 12.2422 19.7305 12.1589 19.7227 12.0761L21.2 11.5863V11.6796C21.2197 11.7887 21.2625 11.8923 21.3255 11.9835C21.3886 12.0747 21.4703 12.1513 21.5654 12.2083C21.6936 12.2879 21.8422 12.3284 21.9931 12.3249C22.0774 12.3234 22.1611 12.3103 22.2418 12.2861L24.5744 11.5086C24.6713 11.4759 24.761 11.4244 24.8381 11.3571C24.9152 11.2898 24.9783 11.208 25.0238 11.1163C25.0693 11.0246 25.0962 10.9249 25.1032 10.8227C25.1101 10.7206 25.0968 10.6181 25.0642 10.5211C25.0315 10.4241 24.98 10.3345 24.9127 10.2574C24.8454 10.1803 24.7636 10.1172 24.6719 10.0717C24.5802 10.0262 24.4805 9.99926 24.3783 9.99233C24.2762 9.9854 24.1737 9.99864 24.0768 10.0313ZM6.97175 11.633C6.8488 11.5306 6.76043 11.3928 6.71868 11.2383C6.67694 11.0839 6.68386 10.9203 6.7385 10.7699C6.7463 10.743 6.76126 10.7186 6.78179 10.6994C6.80232 10.6803 6.82767 10.667 6.85512 10.6611C6.90178 10.6611 6.96398 10.6611 7.05728 10.7233L11.7612 14.121L11.5046 14.8985L6.97175 11.633ZM18.0589 12.255L13.8526 14.3542C13.6695 14.4472 13.4571 14.464 13.2617 14.4009C13.3118 14.1247 13.2863 13.8401 13.1877 13.5773C13.0891 13.3144 12.9213 13.0832 12.7019 12.9081L8.03693 9.51039C7.81575 9.33441 7.55474 9.21543 7.27683 9.16392C6.99892 9.1124 6.71261 9.12992 6.44305 9.21494C6.07201 9.32228 5.74849 9.55258 5.5256 9.86804L4.4682 9.33934C4.42382 9.31928 4.37662 9.30616 4.32825 9.30047L4.74033 4.76764L7.07283 5.34299L7.22055 5.32744C7.34226 5.32671 7.4621 5.29742 7.57043 5.24192L8.93883 4.54994H9.4442L8.86108 5.72397C8.76885 5.90759 8.75307 6.12025 8.81717 6.31547C8.88128 6.5107 9.02005 6.67261 9.20318 6.76582L9.36645 6.85134C9.8726 7.10532 10.4539 7.16648 11.0018 7.02342C11.5497 6.88035 12.0269 6.54284 12.3443 6.07384H13.1218L18.0822 11.7418C18.1027 11.7824 18.126 11.8213 18.1522 11.8584C18.1789 11.8824 18.1987 11.913 18.2096 11.9472C18.2206 11.9814 18.2222 12.0178 18.2144 12.0528C18.2178 12.0934 18.2094 12.1342 18.1901 12.1701C18.1707 12.206 18.1414 12.2355 18.1056 12.255H18.0589ZM19.1163 10.6455L14.0159 4.81429C13.9439 4.73233 13.8555 4.66644 13.7564 4.6209C13.6572 4.57535 13.5496 4.55118 13.4406 4.54994H11.8856C11.742 4.55038 11.6013 4.59056 11.4792 4.66604C11.357 4.74152 11.2582 4.84935 11.1936 4.97757L11.1081 5.14084C11.0256 5.30469 10.8879 5.43412 10.7193 5.50627L11.5901 3.77244H13.6971C13.8654 3.77244 14.029 3.82701 14.1636 3.92794L16.0918 5.37409C16.4385 5.63334 16.8504 5.79101 17.2816 5.82946C17.7128 5.86791 18.1461 5.78562 18.5332 5.59179L19.9871 4.86872L20.9279 10.0469L19.1163 10.6455Z" fill="black"/>
</svg>
