<svg width="18" height="18" viewBox="0 0 18 18" fill="none" xmlns="http://www.w3.org/2000/svg">
<path d="M13.6469 7.94096C14.5022 7.15698 15.0723 6.01664 15.0723 4.73377C15.0723 2.38183 13.148 0.45752 10.7961 0.45752C8.65797 0.45752 6.94747 1.88294 6.59111 4.02106H6.51984C4.16791 4.02106 2.24359 5.94537 2.24359 8.29731C2.24359 9.58019 2.81376 10.7205 3.66901 11.5045C2.38614 11.7896 1.17453 12.5736 0.105469 13.999V16.8498C0.105469 17.2774 0.390552 17.5625 0.818177 17.5625H12.2215C12.6491 17.5625 12.9342 17.2774 12.9342 16.8498V13.999H16.4978C16.9254 13.999 17.2105 13.7139 17.2105 13.2863V10.4354C16.2127 9.01002 14.9298 8.22604 13.6469 7.94096ZM10.7961 1.88294C12.3641 1.88294 13.6469 3.16581 13.6469 4.73377C13.6469 6.30173 12.4353 7.5846 10.7961 7.5846C10.7961 6.08791 9.44195 4.80504 8.01653 4.30614C8.23034 2.952 9.37068 1.88294 10.7961 1.88294ZM3.66901 8.29731C3.66901 6.72935 4.95189 5.44648 6.51984 5.44648C8.0878 5.44648 9.37068 6.72935 9.37068 8.29731C9.37068 9.86527 8.0878 11.1481 6.51984 11.1481C4.95189 11.1481 3.66901 9.86527 3.66901 8.29731ZM11.5088 16.1371H1.53089V14.7117C1.53089 14.7117 2.9563 12.5736 6.51984 12.5736C10.0834 12.5736 11.5088 14.7117 11.5088 14.7117V16.1371ZM15.7851 12.5736H11.5801C10.8674 12.0034 10.1547 11.647 9.37068 11.5045C10.0834 10.8631 10.5823 10.0078 10.7248 9.01002H10.7961C14.3596 9.01002 15.7851 11.1481 15.7851 11.1481V12.5736Z" fill="#4C4A41"/>
</svg>
