<svg width="20" height="18" viewBox="0 0 20 18" fill="none" xmlns="http://www.w3.org/2000/svg">
<path opacity="0.7" d="M11 14H9V16H11V14ZM13 14V16H15C15.2652 16 15.5196 16.1054 15.7071 16.2929C15.8946 16.4804 16 16.7348 16 17C16 17.2652 15.8946 17.5196 15.7071 17.7071C15.5196 17.8946 15.2652 18 15 18H5C4.73478 18 4.48043 17.8946 4.29289 17.7071C4.10536 17.5196 4 17.2652 4 17C4 16.7348 4.10536 16.4804 4.29289 16.2929C4.48043 16.1054 4.73478 16 5 16H7V14H2C1.46957 14 0.960859 13.7893 0.585786 13.4142C0.210714 13.0391 0 12.5304 0 12V2C0 0.9 0.9 0 2 0H18C18.5304 0 19.0391 0.210714 19.4142 0.585786C19.7893 0.960859 20 1.46957 20 2V12C20 12.5304 19.7893 13.0391 19.4142 13.4142C19.0391 13.7893 18.5304 14 18 14H13ZM2 2V12H18V2H2Z" fill="black"/>
</svg>
