<svg width="22" height="22" viewBox="0 0 22 22" fill="none" xmlns="http://www.w3.org/2000/svg">
<path opacity="0.7" d="M17.4167 9.625C18.5167 8.61667 19.25 7.15 19.25 5.5C19.25 2.475 16.775 0 13.75 0C11 0 8.8 1.83333 8.34167 4.58333H8.25C5.225 4.58333 2.75 7.05833 2.75 10.0833C2.75 11.7333 3.48333 13.2 4.58333 14.2083C2.93333 14.575 1.375 15.5833 0 17.4167V21.0833C0 21.6333 0.366667 22 0.916667 22H15.5833C16.1333 22 16.5 21.6333 16.5 21.0833V17.4167H21.0833C21.6333 17.4167 22 17.05 22 16.5V12.8333C20.7167 11 19.0667 9.99167 17.4167 9.625ZM13.75 1.83333C15.7667 1.83333 17.4167 3.48333 17.4167 5.5C17.4167 7.51667 15.8583 9.16667 13.75 9.16667C13.75 7.24167 12.0083 5.59167 10.175 4.95C10.45 3.20833 11.9167 1.83333 13.75 1.83333ZM4.58333 10.0833C4.58333 8.06667 6.23333 6.41667 8.25 6.41667C10.2667 6.41667 11.9167 8.06667 11.9167 10.0833C11.9167 12.1 10.2667 13.75 8.25 13.75C6.23333 13.75 4.58333 12.1 4.58333 10.0833ZM14.6667 20.1667H1.83333V18.3333C1.83333 18.3333 3.66667 15.5833 8.25 15.5833C12.8333 15.5833 14.6667 18.3333 14.6667 18.3333V20.1667ZM20.1667 15.5833H14.7583C13.8417 14.85 12.925 14.3917 11.9167 14.2083C12.8333 13.3833 13.475 12.2833 13.6583 11H13.75C18.3333 11 20.1667 13.75 20.1667 13.75V15.5833Z" fill="black"/>
</svg>
