<svg width="21" height="21" viewBox="0 0 21 21" fill="none" xmlns="http://www.w3.org/2000/svg">
<path d="M18.1211 8.30857C18.1211 7.86222 17.7589 7.49997 17.3125 7.49997C16.8662 7.49997 16.5039 7.86222 16.5039 8.30857C16.5039 8.50102 16.5039 14.1806 16.5039 14.3731C16.5039 14.8194 16.8662 15.1817 17.3125 15.1817C17.7589 15.1817 18.1211 14.8194 18.1211 14.3731C18.1211 14.1806 18.1211 8.50102 18.1211 8.30857Z" stroke="#4C4A41" stroke-width="1.3" stroke-miterlimit="10"/>
<path d="M11.6504 19.2247C12.0968 19.2247 12.459 18.8624 12.459 18.4161C12.459 17.9697 12.0968 17.6075 11.6504 17.6075C11.458 17.6075 9.82136 17.6075 9.62891 17.6075C9.18257 17.6075 8.82031 17.9697 8.82031 18.4161C8.82031 18.8624 9.18257 19.2247 9.62891 19.2247C9.82136 19.2247 11.458 19.2247 11.6504 19.2247Z" stroke="#4C4A41" stroke-width="1.3" stroke-miterlimit="10"/>
<path d="M3.56641 7.90423C3.56641 4.10826 6.64353 1.03113 10.4395 1.03113C14.2355 1.03113 17.3126 4.10826 17.3126 7.90423" stroke="#4C4A41" stroke-width="1.3" stroke-miterlimit="10"/>
<path d="M18.1211 8.30856C19.2378 8.30856 20.1426 9.6658 20.1426 11.3408C20.1426 13.015 19.2378 14.3731 18.1211 14.3731" stroke="#4C4A41" stroke-width="1.3" stroke-miterlimit="10"/>
<path d="M2.75781 8.30858C2.75781 7.86224 3.12007 7.49998 3.56641 7.49998C4.01276 7.49998 4.37501 7.86224 4.37501 8.30858C4.37501 8.50103 4.37501 14.1806 4.37501 14.3731C4.37501 14.8194 4.01276 15.1817 3.56641 15.1817C3.12007 15.1817 2.75781 14.8194 2.75781 14.3731C2.75781 14.1806 2.75781 8.50103 2.75781 8.30858Z" stroke="#4C4A41" stroke-width="1.3" stroke-miterlimit="10"/>
<path d="M2.75978 8.30856C1.64351 8.30856 0.738281 9.6658 0.738281 11.3408C0.738281 13.015 1.64351 14.3731 2.75978 14.3731" stroke="#4C4A41" stroke-width="1.3" stroke-miterlimit="10"/>
<path d="M17.3125 15.1816C17.3125 17.2031 16.0996 18.416 14.0781 18.416H12.4609" stroke="#4C4A41" stroke-width="1.3" stroke-miterlimit="10"/>
</svg>
