<svg width="17" height="15" viewBox="0 0 17 15" fill="none" xmlns="http://www.w3.org/2000/svg">
<path opacity="0.7" d="M9.43873 11.5475H7.88373V13.1025H9.43873V11.5475ZM10.9937 11.5475V13.1025H12.5487C12.7549 13.1025 12.9527 13.1844 13.0985 13.3302C13.2443 13.476 13.3262 13.6738 13.3262 13.88C13.3262 14.0862 13.2443 14.2839 13.0985 14.4298C12.9527 14.5756 12.7549 14.6575 12.5487 14.6575H4.77373C4.56752 14.6575 4.36976 14.5756 4.22396 14.4298C4.07815 14.2839 3.99623 14.0862 3.99623 13.88C3.99623 13.6738 4.07815 13.476 4.22396 13.3302C4.36976 13.1844 4.56752 13.1025 4.77373 13.1025H6.32873V11.5475H2.44123C2.02882 11.5475 1.6333 11.3836 1.34168 11.092C1.05006 10.8004 0.88623 10.4049 0.88623 9.99248V2.21748C0.88623 1.36223 1.58598 0.662476 2.44123 0.662476H14.8812C15.2936 0.662476 15.6892 0.826305 15.9808 1.11792C16.2724 1.40954 16.4362 1.80506 16.4362 2.21748V9.99248C16.4362 10.4049 16.2724 10.8004 15.9808 11.092C15.6892 11.3836 15.2936 11.5475 14.8812 11.5475H10.9937ZM2.44123 2.21748V9.99248H14.8812V2.21748H2.44123Z" fill="black"/>
</svg>
