<svg width="22" height="22" viewBox="0 0 22 22" fill="none" xmlns="http://www.w3.org/2000/svg">
<path d="M9.75792 4.76905C9.75792 3.49613 8.72258 2.46078 7.44965 2.46078C6.17634 2.46078 5.14062 3.49613 5.14062 4.76905C5.14062 6.04198 6.17634 7.07732 7.44965 7.07732C8.72258 7.0777 9.75792 6.04198 9.75792 4.76905ZM6.42488 4.76905C6.42488 4.20436 6.88457 3.74505 7.44965 3.74505C8.01472 3.74505 8.47366 4.20436 8.47366 4.76905C8.47366 5.33375 8.01472 5.79306 7.44965 5.79306C6.88457 5.79306 6.42488 5.33375 6.42488 4.76905Z" fill="#4C4A41"/>
<path d="M14.3996 6.98063H10.9763C11.3869 6.22934 11.6736 5.48371 11.6736 4.85518C11.6736 2.52689 9.77929 0.632233 7.45175 0.632233C5.12347 0.632233 3.22956 2.52689 3.22956 4.85518C3.22956 5.48371 3.51587 6.22934 3.92684 6.98063H0.503906V21.1747H13.1153H14.3996H19.004C20.4062 21.1747 21.5465 20.034 21.5465 18.6323V10.5781L14.3996 10.5769V6.98063ZM7.45175 1.91687C9.07105 1.91687 10.3889 3.23475 10.3889 4.85518C10.3889 5.96607 8.7413 8.17008 7.45175 9.60543C6.16221 8.17008 4.5142 5.96607 4.5142 4.85518C4.5142 3.23475 5.8317 1.91687 7.45175 1.91687ZM13.1153 19.8905H1.78854V8.26489H4.64262V8.13722C5.61677 9.54953 6.77336 10.7707 6.98942 10.9943L7.45213 11.4744L7.91484 10.9943C8.13014 10.7703 9.28636 9.55029 10.2601 8.13836V8.26452H13.1153V10.5766V19.8905ZM20.2626 11.8627V18.6323C20.2626 19.3262 19.6983 19.8905 19.0044 19.8905H14.3996V11.8616L20.2626 11.8627Z" fill="#4C4A41"/>
<path d="M6.1202 16.2685H4.83594V18.633H6.1202V16.2685Z" fill="#4C4A41"/>
<path d="M6.1202 11.5398H4.83594V13.9043H6.1202V11.5398Z" fill="#4C4A41"/>
<path d="M10.0655 16.2685H8.78125V18.633H10.0655V16.2685Z" fill="#4C4A41"/>
<path d="M10.0655 11.5398H8.78125V13.9043H10.0655V11.5398Z" fill="#4C4A41"/>
<path d="M18.6326 13.6282H16.1211V14.9125H18.6326V13.6282Z" fill="#4C4A41"/>
<path d="M18.6326 16.7807H16.1211V18.0649H18.6326V16.7807Z" fill="#4C4A41"/>
</svg>
