<svg width="22" height="21" viewBox="0 0 22 21" fill="none" xmlns="http://www.w3.org/2000/svg">
<g opacity="0.7">
<path d="M9.46231 4.22894C9.46231 2.92766 8.40391 1.86926 7.10264 1.86926C5.80097 1.86926 4.74219 2.92766 4.74219 4.22894C4.74219 5.53022 5.80097 6.58862 7.10264 6.58862C8.40391 6.589 9.46231 5.53022 9.46231 4.22894ZM6.05505 4.22894C6.05505 3.65167 6.52498 3.18213 7.10264 3.18213C7.6803 3.18213 8.14945 3.65167 8.14945 4.22894C8.14945 4.80621 7.6803 5.27575 7.10264 5.27575C6.52498 5.27575 6.05505 4.80621 6.05505 4.22894Z" fill="#010101"/>
<path d="M14.2052 6.48979H10.7056C11.1253 5.72176 11.4184 4.95953 11.4184 4.317C11.4184 1.93686 9.48195 0 7.10258 0C4.72244 0 2.78636 1.93686 2.78636 4.317C2.78636 4.95953 3.07905 5.72176 3.49916 6.48979H0V21H12.8923H14.2052H18.9122C20.3455 21 21.5112 19.8339 21.5112 18.4009V10.1673L14.2052 10.1662V6.48979ZM7.10258 1.31325C8.75795 1.31325 10.1052 2.66048 10.1052 4.317C10.1052 5.45263 8.42085 7.70573 7.10258 9.17305C5.78432 7.70573 4.09961 5.45263 4.09961 4.317C4.09961 2.66048 5.44645 1.31325 7.10258 1.31325ZM12.8923 19.6871H1.31325V7.80265H4.23089V7.67213C5.22674 9.1159 6.40908 10.3643 6.62995 10.5929L7.10297 11.0836L7.57599 10.5929C7.79608 10.3639 8.97805 9.11667 9.97351 7.67329V7.80226H12.8923V10.1658V19.6871ZM20.1988 11.4806V18.4009C20.1988 19.1103 19.6219 19.6871 18.9126 19.6871H14.2052V11.4794L20.1988 11.4806Z" fill="#010101"/>
<path d="M5.7445 15.9845H4.43164V18.4017H5.7445V15.9845Z" fill="#010101"/>
<path d="M5.7445 11.1504H4.43164V13.5676H5.7445V11.1504Z" fill="#010101"/>
<path d="M9.77282 15.9845H8.45996V18.4017H9.77282V15.9845Z" fill="#010101"/>
<path d="M9.77282 11.1504H8.45996V13.5676H9.77282V11.1504Z" fill="#010101"/>
<path d="M18.5332 13.2854H15.9658V14.5983H18.5332V13.2854Z" fill="#010101"/>
<path d="M18.5332 16.5081H15.9658V17.8209H18.5332V16.5081Z" fill="#010101"/>
</g>
</svg>
