<svg width="20" height="20" viewBox="0 0 20 20" fill="none" xmlns="http://www.w3.org/2000/svg">
<g opacity="0.7">
<path d="M18.75 8.75C18.0591 8.75 17.5 9.30969 17.5 10V17.5H2.5V10C2.5 9.30969 1.94094 8.75 1.25 8.75C0.559062 8.75 0 9.30969 0 10V18.75C0 19.4403 0.559062 20 1.25 20H18.75C19.4409 20 20 19.4403 20 18.75V10C20 9.30969 19.4409 8.75 18.75 8.75Z" fill="black"/>
<path d="M8.75 12.5C8.75 13.1903 9.30906 13.75 10 13.75C10.6909 13.75 11.25 13.1903 11.25 12.5V5H15L10 0L5 5H8.75V12.5Z" fill="black"/>
</g>
</svg>
