<svg width="28" height="26" viewBox="0 0 28 26" fill="none" xmlns="http://www.w3.org/2000/svg">
<g opacity="0.7">
<path d="M23.8798 10.4C23.8798 9.82591 23.4139 9.35999 22.8398 9.35999C22.2657 9.35999 21.7998 9.82591 21.7998 10.4C21.7998 10.6475 21.7998 17.9525 21.7998 18.2C21.7998 18.7741 22.2657 19.24 22.8398 19.24C23.4139 19.24 23.8798 18.7741 23.8798 18.2C23.8798 17.9525 23.8798 10.6475 23.8798 10.4Z" stroke="black" stroke-width="1.3" stroke-miterlimit="10"/>
<path d="M15.5599 24.44C16.134 24.44 16.5999 23.9741 16.5999 23.4C16.5999 22.8259 16.134 22.36 15.5599 22.36C15.3124 22.36 13.2074 22.36 12.9599 22.36C12.3858 22.36 11.9199 22.8259 11.9199 23.4C11.9199 23.9741 12.3858 24.44 12.9599 24.44C13.2074 24.44 15.3124 24.44 15.5599 24.44Z" stroke="black" stroke-width="1.3" stroke-miterlimit="10"/>
<path d="M5.16016 9.87992C5.16016 4.99764 9.11788 1.03992 14.0002 1.03992C18.8824 1.03992 22.8402 4.99764 22.8402 9.87992" stroke="black" stroke-width="1.3" stroke-miterlimit="10"/>
<path d="M23.8799 10.4C25.3161 10.4 26.4799 12.1457 26.4799 14.3C26.4799 16.4533 25.3161 18.2 23.8799 18.2" stroke="black" stroke-width="1.3" stroke-miterlimit="10"/>
<path d="M4.12012 10.4C4.12012 9.82591 4.58604 9.35999 5.16012 9.35999C5.7342 9.35999 6.20012 9.82591 6.20012 10.4C6.20012 10.6475 6.20012 17.9525 6.20012 18.2C6.20012 18.7741 5.7342 19.24 5.16012 19.24C4.58604 19.24 4.12012 18.7741 4.12012 18.2C4.12012 17.9525 4.12012 10.6475 4.12012 10.4Z" stroke="black" stroke-width="1.3" stroke-miterlimit="10"/>
<path d="M4.11953 10.4C2.68381 10.4 1.51953 12.1457 1.51953 14.3C1.51953 16.4533 2.68381 18.2 4.11953 18.2" stroke="black" stroke-width="1.3" stroke-miterlimit="10"/>
<path d="M22.8396 19.24C22.8396 21.84 21.2796 23.4 18.6796 23.4H16.5996" stroke="black" stroke-width="1.3" stroke-miterlimit="10"/>
</g>
</svg>
