<svg width="34" height="21" viewBox="0 0 34 21" fill="none" xmlns="http://www.w3.org/2000/svg">
<path opacity="0.7" d="M31.6805 12.0499L29.7805 12.6899L28.1305 3.62992L32.3705 1.92992C32.4927 1.88133 32.604 1.80917 32.6983 1.71754C32.7925 1.62591 32.8678 1.51662 32.9198 1.3959C32.9718 1.27519 32.9995 1.14541 33.0013 1.01398C33.0032 0.882556 32.9791 0.752052 32.9305 0.629923C32.8819 0.507794 32.8098 0.39643 32.7181 0.302192C32.6265 0.207953 32.5172 0.132685 32.3965 0.0806838C32.2758 0.028683 32.146 0.000968612 32.0146 -0.000877795C31.8832 -0.0027242 31.7526 0.0213339 31.6305 0.069923L26.6305 2.06992C26.4126 2.15255 26.2304 2.30868 26.1154 2.51135C26.0004 2.71401 25.9597 2.95049 26.0005 3.17992V3.35992L23.6105 4.54992C23.4445 4.63416 23.2582 4.67036 23.0727 4.65446C22.8872 4.63856 22.7098 4.57119 22.5605 4.45992L20.1305 2.59992C19.6112 2.21046 18.9796 1.99992 18.3305 1.99992H15.6205C15.2522 2.0001 14.8911 2.10197 14.5771 2.29431C14.263 2.48664 14.0081 2.76196 13.8405 3.08992L12.0505 2.99992C11.8771 2.99258 11.7048 3.03049 11.5505 3.10992L9.88052 3.93992L7.00052 3.21992V3.08992C7.02179 2.88704 6.98049 2.6825 6.88218 2.50376C6.78387 2.32501 6.63325 2.18061 6.45052 2.08992L2.45052 0.089923C2.21743 -0.00714184 1.95624 -0.0124368 1.71941 0.0751014C1.48257 0.16264 1.28762 0.33653 1.17369 0.561861C1.05975 0.787191 1.03528 1.04728 1.10518 1.28991C1.17508 1.53254 1.33417 1.73974 1.55052 1.86992L4.94052 3.56992L4.12052 12.6299L2.32052 12.0299C2.19117 11.9879 2.05481 11.9718 1.91922 11.9824C1.78363 11.9931 1.65147 12.0304 1.53029 12.0921C1.40911 12.1539 1.30128 12.2389 1.21296 12.3423C1.12463 12.4458 1.05754 12.5656 1.01552 12.6949C0.973497 12.8243 0.957363 12.9606 0.96804 13.0962C0.978717 13.2318 1.01599 13.364 1.07775 13.4851C1.1395 13.6063 1.22451 13.7142 1.32794 13.8025C1.43136 13.8908 1.55117 13.9579 1.68052 13.9999L4.68052 14.9999C4.7867 15.0143 4.89434 15.0143 5.00052 14.9999C5.19477 14.9961 5.38453 14.9409 5.55052 14.8399C5.67745 14.7572 5.78391 14.6467 5.86186 14.5167C5.93982 14.3868 5.98723 14.2409 6.00052 14.0899L6.08052 13.1599L7.37052 13.7999C7.49018 14.5421 7.87803 15.2146 8.46052 15.6899L14.2305 19.8299C14.4356 19.9992 14.6724 20.1258 14.9271 20.2024C15.1817 20.2791 15.4491 20.3041 15.7135 20.2762C15.978 20.2483 16.2342 20.1679 16.4672 20.0397C16.7002 19.9116 16.9053 19.7383 17.0705 19.5299C17.4511 19.6746 17.8578 19.7377 18.2643 19.7153C18.6708 19.6929 19.0681 19.5855 19.4305 19.3999L24.8405 16.6999C25.1671 16.535 25.4497 16.2949 25.6653 15.9993C25.8809 15.7038 26.0232 15.3612 26.0805 14.9999C26.0905 14.8935 26.0905 14.7864 26.0805 14.6799L27.9805 14.0499V14.1699C28.0059 14.3102 28.0609 14.4435 28.142 14.5608C28.223 14.678 28.3282 14.7766 28.4505 14.8499C28.6154 14.9522 28.8065 15.0043 29.0005 14.9999C29.109 14.9979 29.2166 14.9811 29.3205 14.9499L32.3205 13.9499C32.4453 13.9079 32.5605 13.8417 32.6597 13.7551C32.7589 13.6686 32.84 13.5633 32.8985 13.4454C32.957 13.3275 32.9917 13.1992 33.0007 13.0678C33.0096 12.9365 32.9925 12.8047 32.9505 12.6799C32.9085 12.5552 32.8423 12.4399 32.7557 12.3407C32.6692 12.2416 32.5639 12.1604 32.446 12.1019C32.3281 12.0434 32.1998 12.0087 32.0684 11.9998C31.9371 11.9909 31.8053 12.0079 31.6805 12.0499ZM9.68052 14.1099C9.52238 13.9783 9.40872 13.801 9.35503 13.6024C9.30134 13.4037 9.31024 13.1933 9.38052 12.9999C9.39055 12.9652 9.40979 12.9339 9.4362 12.9092C9.46261 12.8846 9.4952 12.8675 9.53052 12.8599C9.59052 12.8599 9.67052 12.8599 9.79052 12.9399L15.8405 17.3099L15.5105 18.3099L9.68052 14.1099ZM23.9405 14.9099L18.5305 17.6099C18.295 17.7295 18.0218 17.7511 17.7705 17.6699C17.835 17.3147 17.8021 16.9487 17.6753 16.6106C17.5485 16.2726 17.3326 15.9752 17.0505 15.7499L11.0505 11.3799C10.766 11.1536 10.4303 11.0006 10.0729 10.9343C9.71546 10.868 9.34722 10.8906 9.00052 10.9999C8.5233 11.138 8.10719 11.4342 7.82052 11.8399L6.46052 11.1599C6.40344 11.1341 6.34273 11.1172 6.28052 11.1099L6.81052 5.27992L9.81052 6.01992L10.0005 5.99992C10.1571 5.99898 10.3112 5.96131 10.4505 5.88992L12.2105 4.99992H12.8605L12.1105 6.50992C11.9919 6.74609 11.9716 7.01961 12.0541 7.2707C12.1365 7.52179 12.315 7.73004 12.5505 7.84992L12.7605 7.95992C13.4115 8.28658 14.1591 8.36524 14.8639 8.18124C15.5686 7.99724 16.1823 7.56314 16.5905 6.95992H17.5905L23.9705 14.2499C23.9968 14.3021 24.0269 14.3522 24.0605 14.3999C24.0948 14.4308 24.1203 14.4702 24.1344 14.5141C24.1484 14.558 24.1506 14.6049 24.1405 14.6499C24.145 14.7022 24.1341 14.7546 24.1092 14.8008C24.0844 14.8469 24.0466 14.8849 24.0005 14.9099H23.9405ZM25.3005 12.8399L18.7405 5.33992C18.6479 5.23451 18.5342 5.14976 18.4067 5.09118C18.2792 5.0326 18.1408 5.00151 18.0005 4.99992H16.0005C15.8159 5.00048 15.6349 5.05217 15.4779 5.14925C15.3208 5.24633 15.1936 5.38501 15.1105 5.54992L15.0005 5.75992C14.8945 5.97066 14.7174 6.13714 14.5005 6.22992L15.6205 3.99992H18.3305C18.5469 3.99992 18.7574 4.0701 18.9305 4.19992L21.4105 6.05992C21.8564 6.39336 22.3862 6.59616 22.9408 6.64561C23.4953 6.69506 24.0527 6.58921 24.5505 6.33992L26.4205 5.40992L27.6305 12.0699L25.3005 12.8399Z" fill="black"/>
</svg>
