<svg width="24" height="22" viewBox="0 0 24 22" fill="none" xmlns="http://www.w3.org/2000/svg">
<path opacity="0.7" d="M11.7486 12.2184C15.1437 12.2184 17.8975 9.52303 17.8975 6.19995C17.8975 2.87687 15.1437 0.199951 11.7486 0.199951C8.35343 0.199951 5.59961 2.89534 5.59961 6.19995C5.59961 9.50457 8.35343 12.2184 11.7486 12.2184ZM11.7486 1.76918C14.2383 1.76918 16.2754 3.76303 16.2754 6.19995C16.2754 8.63687 14.2383 10.6307 11.7486 10.6307C9.2588 10.6307 7.22172 8.63687 7.22172 6.19995C7.22172 3.76303 9.2588 1.76918 11.7486 1.76918Z" fill="black"/>
<path opacity="0.7" d="M1.61086 21.6154H22.9624C23.4151 21.6154 23.7735 21.2646 23.7735 20.8215C23.7735 16.6677 20.3218 13.2708 16.059 13.2708H8.51428C4.27037 13.2708 0.799805 16.6492 0.799805 20.8215C0.799805 21.2646 1.15818 21.6154 1.61086 21.6154ZM8.51428 14.8584H16.059C19.1523 14.8584 21.6987 17.1108 22.0948 20.0277H2.4785C2.8746 17.1292 5.42094 14.8584 8.51428 14.8584Z" fill="black"/>
</svg>
