<svg width="19" height="18" viewBox="0 0 19 18" fill="none" xmlns="http://www.w3.org/2000/svg">
<path opacity="0.7" d="M9.4683 10.1498C12.108 10.1498 14.2491 8.05411 14.2491 5.47042C14.2491 2.88673 12.108 0.80542 9.4683 0.80542C6.8286 0.80542 4.6875 2.90108 4.6875 5.47042C4.6875 8.03976 6.8286 10.1498 9.4683 10.1498ZM9.4683 2.0255C11.4041 2.0255 12.9879 3.57571 12.9879 5.47042C12.9879 7.36513 11.4041 8.91534 9.4683 8.91534C7.53252 8.91534 5.94869 7.36513 5.94869 5.47042C5.94869 3.57571 7.53252 2.0255 9.4683 2.0255Z" fill="black"/>
<path opacity="0.7" d="M1.57982 17.456H18.1806C18.5326 17.456 18.8112 17.1832 18.8112 16.8387C18.8112 13.6091 16.1275 10.968 12.8132 10.968H6.94722C3.64759 10.968 0.949219 13.5948 0.949219 16.8387C0.949219 17.1832 1.22785 17.456 1.57982 17.456ZM6.94722 12.2024H12.8132C15.2183 12.2024 17.1981 13.9536 17.5061 16.2215H2.25441C2.56237 13.968 4.54215 12.2024 6.94722 12.2024Z" fill="black"/>
</svg>
